<?xml version="1.0" standalone="no"?>
<!DOCTYPE svg PUBLIC "-//W3C//DTD SVG 20010904//EN"
 "http://www.w3.org/TR/2001/REC-SVG-20010904/DTD/svg10.dtd">
<svg version="1.0" xmlns="http://www.w3.org/2000/svg"
 width="251.000000pt" height="256.000000pt" viewBox="0 0 251.000000 256.000000"
 preserveAspectRatio="xMidYMid meet">

<g transform="translate(0.000000,256.000000) scale(0.100000,-0.100000)"
fill="#000000" stroke="none">
<path d="M1917 2442 c-10 -10 -17 -23 -17 -28 0 -5 5 -1 11 9 6 10 20 22 32
27 15 6 17 9 6 9 -9 1 -23 -7 -32 -17z"/>
<path d="M1950 2434 c0 -5 -14 -24 -31 -42 -17 -18 -29 -35 -27 -38 3 -2 19
14 37 37 18 22 30 43 27 46 -3 4 -6 2 -6 -3z"/>
<path d="M1969 2343 l-34 -38 40 35 c22 19 42 36 44 38 2 1 0 2 -5 2 -6 0 -26
-17 -45 -37z"/>
<path d="M2030 2363 c0 -10 -18 -38 -40 -62 -22 -25 -44 -57 -49 -72 -8 -24
-7 -27 15 -32 21 -4 38 9 97 69 40 41 80 74 90 74 39 0 10 -45 -81 -124 -29
-25 -49 -46 -44 -46 11 0 92 68 116 98 13 16 22 20 29 13 15 -15 -16 -56 -73
-97 -32 -23 -47 -40 -43 -50 6 -17 19 -18 29 -3 8 13 94 69 106 69 4 0 8 -7 8
-15 0 -9 -26 -32 -59 -53 -45 -28 -61 -45 -70 -72 -15 -50 -70 -99 -133 -120
-51 -18 -55 -22 -122 -127 -107 -169 -334 -548 -353 -590 -14 -31 -17 -70 -18
-203 -2 -243 -14 -492 -26 -506 -5 -6 -37 -24 -72 -40 -59 -28 -68 -29 -207
-29 -127 1 -152 3 -200 23 -88 36 -105 53 -103 106 2 53 29 243 48 336 7 36
16 117 20 180 l7 116 61 -30 c51 -26 74 -31 156 -34 81 -3 105 0 156 19 82 31
157 108 209 214 21 44 56 105 76 135 21 31 59 91 85 135 26 44 68 109 95 145
26 36 61 90 77 120 l30 55 -36 20 -36 21 0 78 c-1 65 -4 81 -20 92 -10 8 -25
14 -32 14 -16 0 -17 12 -1 28 34 34 88 -7 88 -67 0 -50 17 -63 69 -55 35 6 46
3 66 -16 28 -27 33 -16 9 19 -15 21 -22 23 -65 17 -27 -4 -49 -3 -49 1 0 8 35
73 80 150 19 33 19 35 2 13 -11 -13 -35 -53 -54 -87 -18 -35 -36 -63 -40 -63
-5 0 -8 16 -8 35 0 43 -29 75 -68 75 -57 0 -72 -51 -21 -69 l32 -11 -6 -61
c-6 -73 4 -105 38 -121 14 -6 25 -19 25 -28 0 -10 -33 -64 -73 -121 -40 -57
-99 -147 -129 -199 -57 -96 -101 -160 -79 -113 26 52 2 192 -49 293 -38 75
-80 124 -139 158 -41 24 -56 27 -141 27 -86 0 -101 -3 -162 -32 -97 -46 -190
-139 -234 -234 -18 -41 -34 -82 -34 -91 0 -53 -24 -8 -79 149 l-61 177 37 38
c38 39 61 46 80 27 16 -16 33 -2 33 26 0 15 -10 31 -26 41 -24 16 -28 16 -60
1 -50 -24 -63 -21 -80 18 -18 44 -18 91 1 145 18 50 19 86 4 96 -18 11 -39
-19 -44 -62 l-5 -39 12 44 c7 25 19 47 27 49 15 5 14 -6 -10 -111 -10 -43 -10
-67 -2 -98 9 -35 8 -41 -6 -46 -24 -9 -51 -34 -51 -49 0 -8 10 -3 24 11 20 19
30 23 65 18 29 -4 48 -1 67 12 21 13 31 15 50 6 27 -12 35 -58 9 -47 -8 3 -22
9 -30 12 -19 8 -124 -94 -109 -104 19 -14 135 -391 132 -430 -3 -33 -9 -22
-60 109 -31 80 -67 181 -79 223 -22 76 -22 76 -61 82 -49 8 -81 33 -113 89
-14 24 -46 63 -70 88 -43 42 -58 77 -34 77 6 0 31 -21 55 -47 41 -45 45 -47
58 -30 13 17 10 25 -25 79 -22 36 -39 73 -39 90 0 40 12 29 56 -50 46 -83 40
-77 60 -61 16 13 16 16 -7 109 -8 33 -8 32 -4 -10 2 -25 7 -55 11 -67 4 -17 2
-23 -8 -23 -8 0 -27 27 -43 60 -16 33 -36 67 -46 75 -14 14 -18 14 -29 0 -17
-20 -6 -56 36 -122 22 -34 33 -62 29 -72 -5 -13 -15 -6 -47 32 -41 48 -78 62
-78 30 0 -24 29 -67 62 -93 15 -12 36 -40 46 -63 25 -55 58 -84 113 -100 37
-11 45 -18 52 -47 24 -91 94 -285 136 -380 27 -58 57 -125 67 -150 10 -25 34
-65 53 -89 l34 -44 -6 -126 c-3 -73 -14 -164 -26 -216 -11 -49 -21 -103 -21
-120 -1 -26 -3 -27 -10 -10 -6 15 -8 10 -7 -20 1 -22 0 -69 -2 -105 l-3 -65
-23 48 c-28 58 -72 107 -97 107 -25 0 -22 -22 7 -50 29 -27 33 -45 8 -36 -15
5 -15 4 1 -9 45 -34 48 -10 6 38 -16 19 -30 37 -30 41 0 14 28 4 47 -16 21
-23 84 -148 75 -148 -11 0 -98 54 -120 74 -17 15 -21 16 -17 5 6 -16 138 -98
231 -144 74 -36 152 -48 284 -42 139 6 225 32 276 84 25 25 34 42 33 66 l-1
32 -9 -30 c-4 -17 -23 -44 -41 -60 -18 -17 -25 -21 -15 -9 14 17 18 51 23 205
3 101 5 243 4 314 -1 113 2 139 21 190 12 32 26 64 31 69 9 11 21 30 93 155
21 35 72 118 115 185 42 66 98 158 124 204 37 63 54 83 74 88 52 11 60 15 100
44 30 21 46 43 59 79 10 30 26 54 39 60 37 17 94 72 94 92 0 23 -15 24 -54 4
-43 -23 -44 -18 -3 19 36 33 46 59 27 71 -5 3 -7 19 -3 35 5 27 3 30 -22 30
-21 0 -44 -17 -96 -70 -38 -38 -76 -70 -84 -70 -27 0 -16 30 28 78 47 51 62
78 47 87 -6 4 -10 -2 -10 -12z m75 -193 c-3 -5 -16 -15 -28 -21 -21 -10 -21
-9 2 10 25 23 36 27 26 11z m-780 -204 c85 -39 159 -148 189 -276 l14 -61 -41
38 c-23 22 -57 48 -75 58 -25 15 -32 26 -32 51 0 58 -67 93 -141 73 -63 -17
-127 -12 -156 11 -14 11 -39 20 -55 20 -31 0 -108 -37 -108 -52 0 -4 -8 -8
-17 -8 -20 0 16 41 80 92 98 78 242 101 342 54z m-289 -127 c16 -17 16 -22 4
-29 -21 -14 -36 -12 -50 5 -7 8 -17 12 -22 9 -6 -4 -5 3 1 15 15 27 43 27 67
0z m254 -7 c0 -5 9 -19 20 -32 24 -27 25 -40 6 -40 -8 0 -20 -2 -28 -5 -14 -5
-71 68 -61 79 9 9 63 7 63 -2z m-153 -47 c7 -21 4 -22 -37 -15 -35 7 -35 7
-10 18 34 15 40 14 47 -3z m-232 -6 c9 -14 4 -18 -34 -29 -28 -8 -30 -7 -21
10 14 27 44 37 55 19z m245 -34 c14 -7 25 -19 25 -25 0 -7 11 -20 25 -28 l25
-16 -20 24 -20 23 20 -8 c11 -4 42 -9 70 -11 37 -2 54 -8 68 -25 32 -39 96
-155 118 -213 l21 -55 -22 -46 c-28 -58 -112 -151 -159 -175 -59 -30 -143 -41
-223 -30 -122 18 -218 86 -267 189 -23 49 -26 69 -26 161 0 119 22 202 58 222
12 6 54 12 95 13 40 2 76 5 79 9 12 11 108 5 133 -9z m252 -62 c61 -56 118
-132 118 -158 0 -12 -6 -38 -14 -56 l-15 -34 -16 40 c-34 82 -66 144 -100 188
-19 25 -35 48 -35 51 0 15 24 3 62 -31z"/>
<path d="M935 1721 c-3 -6 10 -7 32 -4 50 8 55 13 10 13 -20 0 -38 -4 -42 -9z"/>
<path d="M978 1685 c26 -11 33 -20 30 -37 -2 -14 -11 -24 -23 -26 l-20 -3 20
16 c20 16 20 17 -5 13 -19 -2 -25 -9 -24 -25 0 -13 -5 -23 -13 -23 -8 0 -18
10 -23 23 -5 13 -9 16 -9 7 -1 -25 20 -40 54 -40 38 0 55 16 55 51 0 29 -31
59 -60 59 -8 -1 0 -7 18 -15z"/>
<path d="M920 1675 c-7 -9 -11 -17 -9 -20 3 -2 10 5 17 15 14 24 10 26 -8 5z"/>
<path d="M1080 1668 c-11 -12 -20 -34 -20 -48 0 -57 86 -93 123 -52 23 25 22
85 -1 105 -26 24 -77 21 -102 -5z m98 0 c7 -7 12 -28 11 -47 0 -20 -3 -30 -6
-23 -4 10 -8 10 -21 0 -13 -11 -15 -10 -10 10 7 26 -13 30 -33 6 -10 -12 -10
-20 -1 -35 16 -25 -2 -25 -28 1 -24 24 -26 57 -3 82 18 20 73 24 91 6z"/>
<path d="M1290 1608 c-30 -44 -106 -119 -204 -201 -29 -24 -29 -25 -14 -50 44
-65 151 -90 231 -52 83 39 115 195 61 303 -14 29 -29 52 -32 52 -4 0 -23 -23
-42 -52z m60 8 c11 -21 10 -29 -9 -60 -24 -38 -107 -117 -189 -179 -51 -38
-53 -39 -67 -21 -8 10 -15 21 -15 24 0 3 21 22 48 42 63 49 169 154 190 190
20 34 25 35 42 4z m30 -183 c-1 -22 -50 -90 -79 -110 -68 -46 -62 -19 14 65
43 48 65 63 65 45z"/>
<path d="M996 1564 c-19 -18 -5 -54 21 -54 14 0 14 2 -2 20 -15 16 -15 22 -5
35 16 20 6 19 -14 -1z"/>
<path d="M493 2353 c-3 -10 -8 -21 -10 -25 -2 -5 0 -8 5 -8 5 0 12 10 16 23 5
18 8 20 16 7 5 -8 10 -28 10 -45 1 -67 12 -105 31 -105 14 0 19 7 18 28 -2 23
-2 24 -6 5 -8 -42 -21 -24 -28 40 -8 65 -19 97 -36 97 -5 0 -12 -8 -16 -17z"/>
<path d="M1314 2138 c-4 -6 -3 -8 4 -4 5 3 13 0 15 -6 3 -8 6 -6 6 5 1 19 -14
23 -25 5z"/>
<path d="M1446 2121 c-4 -5 3 -7 14 -4 23 6 26 13 6 13 -8 0 -17 -4 -20 -9z"/>
<path d="M1410 2090 c-6 -11 -8 -20 -6 -20 3 0 10 9 16 20 6 11 8 20 6 20 -3
0 -10 -9 -16 -20z"/>
<path d="M1441 2080 c-19 -16 -38 -27 -43 -24 -4 3 -8 0 -8 -5 0 -19 15 -12
56 24 21 19 37 34 34 34 -3 0 -20 -13 -39 -29z"/>
<path d="M1310 2090 c1 -8 7 -24 15 -34 19 -25 19 -16 0 20 -8 16 -15 22 -15
14z"/>
<path d="M341 1980 c-27 -23 -47 -26 -54 -7 -3 7 -6 5 -6 -5 -1 -25 26 -22 74
7 22 14 33 25 25 25 -8 -1 -26 -10 -39 -20z"/>
<path d="M2190 1937 l-35 -22 79 -3 c84 -3 108 6 86 33 -19 23 -88 19 -130 -8z
m125 -2 c0 -5 -29 -11 -65 -13 -60 -2 -64 -1 -45 13 22 18 110 17 110 0z"/>
<path d="M424 1902 c9 -14 -63 -102 -84 -102 -31 0 -24 25 18 60 20 18 28 28
17 22 -34 -17 -68 -60 -61 -77 11 -29 49 -12 88 40 40 52 45 65 27 65 -5 0 -8
-3 -5 -8z"/>
<path d="M1905 1591 c-3 -6 -2 -11 2 -11 5 0 19 -20 31 -45 19 -38 26 -45 52
-45 24 0 31 5 36 26 10 41 -23 78 -74 82 -22 2 -43 -2 -47 -7z m95 -21 c22
-22 25 -37 11 -58 -15 -24 -45 -8 -69 36 l-23 42 30 0 c18 0 40 -9 51 -20z"/>
<path d="M498 1013 c7 -3 16 -2 19 1 4 3 -2 6 -13 5 -11 0 -14 -3 -6 -6z"/>
<path d="M788 1003 c7 -3 16 -2 19 1 4 3 -2 6 -13 5 -11 0 -14 -3 -6 -6z"/>
<path d="M970 1000 c0 -5 5 -10 10 -10 6 0 10 5 10 10 0 6 -4 10 -10 10 -5 0
-10 -4 -10 -10z"/>
<path d="M578 993 c7 -3 16 -2 19 1 4 3 -2 6 -13 5 -11 0 -14 -3 -6 -6z"/>
<path d="M665 990 l-60 -7 55 0 c30 -1 66 3 80 7 30 10 13 10 -75 0z"/>
<path d="M498 973 c6 -2 18 -2 25 0 6 3 1 5 -13 5 -14 0 -19 -2 -12 -5z"/>
<path d="M1205 970 c-7 -12 2 -30 16 -30 12 0 12 27 0 35 -5 3 -12 1 -16 -5z"/>
<path d="M600 954 c25 -11 46 -14 75 -9 22 5 60 8 85 8 39 -1 42 1 20 9 -17 6
-42 6 -76 -3 -47 -11 -64 -10 -121 6 -10 3 -2 -2 17 -11z"/>
<path d="M1613 953 c37 -2 97 -2 135 0 37 2 6 3 -68 3 -74 0 -105 -1 -67 -3z"/>
<path d="M1498 943 c7 -3 16 -2 19 1 4 3 -2 6 -13 5 -11 0 -14 -3 -6 -6z"/>
<path d="M1550 924 l-65 -13 81 5 c63 5 88 2 112 -10 20 -10 53 -15 94 -14
l63 1 -65 7 c-36 3 -82 14 -102 23 -21 9 -41 16 -45 16 -4 -1 -37 -8 -73 -15z"/>
<path d="M595 850 c-14 -22 7 -49 50 -64 48 -16 54 -12 30 20 -12 14 -14 15
-9 2 4 -13 1 -15 -18 -11 -46 12 -66 47 -30 56 15 4 15 5 0 6 -9 0 -20 -4 -23
-9z"/>
<path d="M740 853 c8 -3 26 -17 39 -31 13 -15 20 -20 16 -12 -15 29 -38 50
-54 49 -14 0 -14 -1 -1 -6z"/>
<path d="M1655 837 c18 -14 18 -15 -15 -36 -55 -33 -61 -26 -21 24 15 19 15
19 -2 6 -19 -15 -51 -70 -45 -76 2 -2 26 8 53 23 53 29 68 64 30 70 -20 4 -20
4 0 -11z"/>
<path d="M730 831 c0 -12 49 -91 57 -91 4 0 -43 86 -53 99 -2 2 -4 -1 -4 -8z"/>
<path d="M1668 709 l-33 -30 40 6 c50 9 75 22 75 40 0 26 -48 17 -82 -16z m72
12 c0 -5 -19 -13 -42 -19 l-43 -11 24 20 c24 19 61 26 61 10z"/>
<path d="M1553 713 c7 -11 -17 -26 -42 -27 -8 -1 -16 -7 -18 -13 -4 -10 3 -10
26 -2 38 13 57 34 40 45 -7 4 -9 3 -6 -3z"/>
<path d="M1456 575 c-9 -26 -7 -32 5 -12 6 10 9 21 6 23 -2 3 -7 -2 -11 -11z"/>
<path d="M1394 420 c-23 -10 -81 -28 -130 -40 -74 -19 -105 -22 -184 -17 -52
4 -106 9 -120 12 l-25 6 25 -12 c42 -20 236 -23 310 -6 82 19 89 14 13 -9 -43
-13 -92 -18 -185 -19 -79 0 -119 -3 -105 -8 12 -5 74 -7 137 -4 90 3 129 10
180 29 36 13 64 30 63 36 -2 7 3 12 10 12 6 0 26 9 42 20 37 24 24 25 -31 0z"/>
</g>
</svg>
